<?xml version="1.0" ?>
<!-- Uploaded to: SVG Repo, www.svgrepo.com, Generator: SVG Repo Mixer Tools -->
<svg width="800px" height="800px" viewBox="0 0 128 128" version="1.1" xml:space="preserve" xmlns="http://www.w3.org/2000/svg" xmlns:xlink="http://www.w3.org/1999/xlink">
<style type="text/css">
	.st0{fill:#69A401;}
	.st1{fill:#EFE691;}
	.st2{fill:#B20000;}
	.st3{fill:#DF1801;}
	.st4{fill:#F40603;}
	.st5{fill:#FFEEEE;}
	.st6{fill:#847B3C;}
	.st7{fill:#CEB600;}
	.st8{fill:#F8CD02;}
	.st9{fill:#F7C800;}
	.st10{fill:#F6E8B9;}
	.st11{fill:#F6E9CA;}
	.st12{fill:#CF8A11;}
	.st13{fill:#286F0D;}
	.st14{fill:#63271D;}
	.st15{fill:#EB8102;}
	.st16{fill:#E37303;}
	.st17{fill:#D97102;}
	.st18{fill:#BF6302;}
	.st19{fill:#EA9735;}
	.st20{fill:#3E1A01;}
	.st21{fill:#C96A0A;}
	.st22{fill:#CE2335;}
	.st23{fill:#C0242D;}
	.st24{fill:#BA1A23;}
	.st25{fill:#F9DCC7;}
	.st26{fill:#DBE2CE;}
	.st27{fill:#7D4B12;}
	.st28{fill:#75480C;}
	.st29{fill:#66410C;}
	.st30{fill:#88550D;}
	.st31{fill:#FFFEE9;}
	.st32{fill:#9B9F1A;}
	.st33{fill:#F6E177;}
	.st34{fill:#443A00;}
	.st35{fill:#305209;}
	.st36{fill:#7F7C04;}
	.st37{fill:#BAB424;}
	.st38{fill:#F7CF43;}
	.st39{fill:#DE940E;}
	.st40{fill:#5F570A;}
	.st41{fill:#175424;}
	.st42{fill:#215B25;}
	.st43{fill:#1B5020;}
	.st44{fill:#C0F9C0;}
	.st45{fill:#F3DA78;}
	.st46{fill:#BC441C;}
	.st47{fill:#148E2E;}
	.st48{fill:#283767;}
	.st49{fill:#425285;}
	.st50{fill:#CFDFFF;}
	.st51{fill:#1F2C55;}
	.st52{fill:#776220;}
	.st53{fill:#90236B;}
	.st54{fill:#5D1A47;}
	.st55{fill:#99499A;}
	.st56{fill:#FCCAFA;}
	.st57{fill:#917C31;}
	.st58{fill:#F4C435;}
	.st59{fill:#F1BC02;}
	.st60{fill:#F0B102;}
	.st61{fill:#F1F7BA;}
	.st62{fill:#E3DCB9;}
	.st63{fill:#BD6800;}
	.st64{fill:#E19704;}
	.st65{fill:#B2CA2B;}
	.st66{fill:#AFC20F;}
	.st67{fill:#B9CB00;}
	.st68{fill:#E5F392;}
	.st69{fill:#F78202;}
	.st70{fill:#F79613;}
	.st71{fill:#331F07;}
	.st72{fill:#402B16;}
	.st73{fill:#669404;}
	.st74{fill:#F58E13;}
	.st75{fill:#D87117;}
	.st76{fill:#216604;}
	.st77{fill:#286D08;}
	.st78{fill:#C8C625;}
	.st79{fill:#2C441F;}
	.st80{fill:#F1E6BF;}
	.st81{fill:#F2BE2E;}
	.st82{fill:#BF8F33;}
	.st83{fill:#568804;}
	.st84{fill:#669614;}
	.st85{fill:#688E0C;}
	.st86{fill:#4C7005;}
	.st87{fill:#A0CA49;}
	.st88{fill:#99BD70;}
	.st89{fill:#78AA25;}
	.st90{fill:#4B7C23;}
	.st91{fill:#EADBC8;}
	.st92{fill:#F0D5B0;}
	.st93{fill:#DF2B2B;}
	.st94{fill:#D1262C;}
	.st95{fill:#B7252C;}
	.st96{fill:#46670C;}
	.st97{fill:#F49D5B;}
	.st98{fill:#F57A55;}
	.st99{fill:#F1C3A7;}
	.st100{fill:#CC0917;}
	.st101{fill:#DC1035;}
	.st102{fill:#9BAC0F;}
	.st103{fill:#667A1D;}
	.st104{fill:#7A9D18;}
	.st105{fill:#F6F7E6;}
	.st106{fill:#F0194D;}
	.st107{fill:#362420;}
	.st108{fill:#530618;}
	.st109{fill:#44041A;}
	.st110{fill:#490419;}
	.st111{fill:#F8A459;}
	.st112{fill:#871B22;}
	.st113{fill:#600613;}
	.st114{fill:#F8C790;}
	.st115{fill:#447832;}
	.st116{fill:#7C473D;}
	.st117{fill:#441432;}
	.st118{fill:#51163F;}
	.st119{fill:#5B1A41;}
	.st120{fill:#FCEBF9;}
	.st121{fill:#ECE5CE;}
	.st122{fill:#BC3E2C;}
	.st123{fill:#A60F26;}
	.st124{fill:#C61632;}
	.st125{fill:#BD1331;}
	.st126{fill:#F8B772;}
	.st127{fill:#F7DDAC;}
	.st128{fill:#850E11;}
	.st129{fill:#191200;}
	.st130{fill:#553D2D;}
	.st131{fill:#F9E2D2;}
	.st132{fill:#CA8937;}
	.st133{fill:#462D16;}
	.st134{fill:#6D8916;}
	.st135{fill:#96B54E;}
	.st136{fill:#E3E2DE;}
	.st137{fill:#261811;}
	.st138{fill:#525C11;}
	.st139{fill:#14581E;}
	.st140{fill:#3D7712;}
	.st141{fill:#9BC148;}
	.st142{fill:#E22434;}
	.st143{fill:#C6DD9E;}
	.st144{fill:#F89A07;}
	.st145{fill:#F7A410;}
	.st146{fill:#F8AB19;}
	.st147{fill:#F7B81C;}
	.st148{fill:#E5870A;}
	.st149{fill:#97A304;}
	.st150{fill:#A88C5C;}
	.st151{fill:#ADC21E;}
	.st152{fill:#A3BA0B;}
	.st153{fill:#8D9E08;}
	.st154{fill:#E0DAB9;}
	.st155{fill:#684219;}
	.st156{fill:#777F05;}
	.st157{fill:#F2E9C4;}
	.st158{fill:#CBB465;}
	.st159{fill:#FFF5CA;}
	.st160{fill:#E52828;}
	.st161{fill:#F87302;}
	.st162{fill:#FF7B22;}
	.st163{fill:#FC7F10;}
	.st164{fill:#F8A200;}
	.st165{fill:#F8DC91;}
	.st166{fill:#FFFFFF;}
	.st167{fill:#F5D7D5;}
	.st168{fill:#EDA07A;}
	.st169{fill:#FCBEBE;}
	.st170{fill:#EAD991;}
	.st171{fill:#582612;}
</style>
<g id="_x33_0_Mulberry"/>
<g id="_x32_9_Star_Fruit"/>
<g id="_x32_8_Apricot"/>
<g id="_x32_7_Litchi"/>
<g id="_x32_6_Kiwi"/>
<g id="_x32_5_Jackfruit"/>
<g id="_x32_4_Avacado"/>
<g id="_x32_3_Blueberry"/>
<g id="_x32_2_Purple_Grapes"/>
<g id="_x32_1_Melon">
<g id="XMLID_1077_">
<g id="XMLID_1086_">
<path class="st57" d="M44.572,19.509c-1.104,0-2-0.896-2-2v-2.47c0-3.96-1.585-6.412-6.058-9.371     c-0.921-0.609-1.174-1.851-0.564-2.771s1.85-1.173,2.771-0.564c4.078,2.697,7.851,6.104,7.851,12.707v2.47     C46.572,18.613,45.676,19.509,44.572,19.509z"/>
<ellipse class="st58" cx="44.268" cy="62.187" id="XMLID_1091_" rx="42.268" ry="44.678"/>
<path class="st59" d="M22.171,62.187c0-21,13.71-38.607,32.183-43.388c-3.233-0.837-6.608-1.29-10.085-1.29     C20.924,17.508,2,37.512,2,62.187c0,24.675,18.924,44.678,42.268,44.678c3.477,0,6.852-0.453,10.085-1.29     C35.881,100.793,22.171,83.187,22.171,62.187z" id="XMLID_2223_"/>
<path class="st60" d="M12.085,62.187c0-22.87,16.26-41.714,37.226-44.351c-1.655-0.208-3.335-0.328-5.043-0.328     C20.924,17.508,2,37.512,2,62.187c0,24.675,18.924,44.678,42.268,44.678c1.708,0,3.388-0.119,5.043-0.328     C28.346,103.901,12.085,85.057,12.085,62.187z" id="XMLID_2046_"/>
<g id="XMLID_1088_">
<path class="st61" d="M14.569,72.748c-0.946,0-1.788-0.675-1.965-1.639c-0.536-2.921-0.808-5.923-0.808-8.923      c0-5.031,0.755-9.982,2.245-14.717c0.331-1.053,1.451-1.639,2.508-1.308c1.053,0.332,1.639,1.455,1.307,2.509      c-1.367,4.345-2.061,8.892-2.061,13.516c0,2.759,0.25,5.518,0.743,8.2c0.199,1.087-0.52,2.129-1.606,2.328      C14.811,72.737,14.689,72.748,14.569,72.748z"/>
<path class="st61" d="M17.9,79.38c-0.26,0-0.52-0.05-0.76-0.15c-0.24-0.109-0.46-0.25-0.65-0.439      c-0.38-0.38-0.59-0.88-0.59-1.41c0-0.13,0.02-0.26,0.04-0.39c0.03-0.131,0.07-0.261,0.12-0.381c0.05-0.119,0.11-0.229,0.18-0.34      c0.07-0.109,0.16-0.21,0.25-0.31c0.74-0.74,2.08-0.74,2.83,0c0.09,0.1,0.17,0.2,0.25,0.31c0.07,0.11,0.13,0.221,0.18,0.34      c0.05,0.12,0.09,0.25,0.12,0.381c0.02,0.13,0.03,0.26,0.03,0.39c0,0.53-0.2,1.03-0.58,1.41S18.44,79.38,17.9,79.38z"/>
</g>
</g>
<g id="XMLID_1078_">
<path class="st62" d="M81.774,126c24.324,0,44.055-18.949,44.226-42.386H37.547     C37.719,107.051,57.45,126,81.774,126z" id="XMLID_1085_"/>
<g id="XMLID_1079_">
<path class="st63" d="M83.213,100.07c-1.104,0-2-0.895-2-1.999l-0.003-6.377c0-1.104,0.895-2,1.999-2.001c0,0,0,0,0.001,0      c1.104,0,2,0.895,2,1.999l0.003,6.377C85.214,99.174,84.319,100.069,83.213,100.07C83.214,100.07,83.214,100.07,83.213,100.07z"/>
<path class="st63" d="M70.893,100.063c-1.104,0-2-0.895-2-1.999l-0.004-6.376c0-1.104,0.894-2,1.999-2.001c0,0,0.001,0,0.001,0      c1.104,0,2,0.895,2,1.999l0.004,6.376c0,1.104-0.894,2-1.999,2.001C70.894,100.063,70.894,100.063,70.893,100.063z"/>
<path class="st63" d="M95.534,100.076c-1.104,0-2-0.895-2-1.999l-0.003-6.376c0-1.104,0.895-2,1.999-2.001c0,0,0,0,0.001,0      c1.104,0,2,0.895,2,1.999l0.003,6.376C97.535,99.18,96.64,100.075,95.534,100.076C95.535,100.076,95.535,100.076,95.534,100.076      z"/>
<path class="st63" d="M58.571,97.702c-1.104,0-2-0.895-2-1.999l-0.002-4.021c0-1.104,0.894-2,1.999-2.001c0,0,0,0,0.001,0      c1.104,0,2,0.895,2,1.999l0.002,4.021C60.571,96.806,59.677,97.701,58.571,97.702C58.572,97.702,58.571,97.702,58.571,97.702z"/>
<path class="st63" d="M107.854,97.728c-1.104,0-2-0.895-2-1.999l-0.002-4.021c0-1.104,0.894-2,1.999-2.001c0,0,0,0,0.001,0      c1.104,0,2,0.895,2,1.999l0.002,4.021C109.854,96.831,108.959,97.727,107.854,97.728      C107.854,97.728,107.854,97.728,107.854,97.728z"/>
</g>
<path class="st64" d="M81.774,119.9c-22.173,0-40.522-15.749-43.725-36.286h-0.502     C37.719,107.051,57.45,126,81.774,126c24.323,0,44.055-18.949,44.226-42.386h-0.502C122.295,104.151,103.946,119.9,81.774,119.9z     " id="XMLID_1005_"/>
</g>
</g>
</g>
<g id="_x32_0_Green_Grapes"/>
<g id="_x31_9_Papaya"/>
<g id="_x31_8_Pineapple"/>
<g id="_x31_7_Banana"/>
<g id="_x31_6_Tender_Coconut"/>
<g id="_x31_5_Strawberry"/>
<g id="_x31_4_Dragon_Fruit"/>
<g id="_x31_3_Plum"/>
<g id="_x31_2_Fig"/>
<g id="_x31_1_Peach"/>
<g id="_x31_0_Cherry"/>
<g id="_x30_9_Sapota"/>
<g id="_x30_8_Custard_Apple"/>
<g id="_x30_7_Watermelon"/>
<g id="_x30_6_Mango"/>
<g id="_x30_5_Pear"/>
<g id="_x30_4_Guava"/>
<g id="_x30_3_Pomegranate"/>
<g id="_x30_2_Orange"/>
<g id="_x30_1_Apple"/>
</svg>